<svg width="129" height="68" viewBox="0 0 129 68" fill="none" xmlns="http://www.w3.org/2000/svg">
<g filter="url(#filter0_di_254_10747)">
<rect x="40" width="49" height="6" fill="#45454A"/>
<rect x="49" y="6" width="6" height="33" fill="#45454A"/>
<rect x="73" y="6" width="6" height="33" fill="#45454A"/>
<path d="M14.104 52.442L10.828 65.104H9.97L4.25 49.946C3.99 49.2353 3.72133 48.8193 3.444 48.698C3.184 48.5593 2.456 48.49 1.26 48.49V48.23H10.152V48.49C9.09467 48.49 8.358 48.5507 7.942 48.672C7.54333 48.776 7.344 48.9927 7.344 49.322C7.344 49.4953 7.396 49.7033 7.5 49.946L11.53 60.84L13.896 51.792L13.35 49.946C13.142 49.2527 12.8907 48.8367 12.596 48.698C12.3013 48.5593 11.5473 48.49 10.334 48.49V48.23H19.2V48.49C18.1427 48.49 17.406 48.5507 16.99 48.672C16.5913 48.776 16.392 49.01 16.392 49.374C16.392 49.5647 16.4267 49.7553 16.496 49.946L19.85 60.866L22.736 52.78C23.0307 51.9307 23.178 51.2373 23.178 50.7C23.178 49.2267 22.138 48.49 20.058 48.49V48.23H26.74V48.49C25.5093 48.49 24.5993 49.1227 24.01 50.388C23.9233 50.5787 23.6027 51.428 23.048 52.936L18.784 65.104H17.952L14.104 52.442ZM36.3547 58.838L33.9627 52.234L31.5707 58.838H36.3547ZM36.4847 59.15H31.4407L30.6347 61.438C30.4267 62.01 30.3227 62.504 30.3227 62.92C30.3227 63.5613 30.5654 64.0207 31.0507 64.298C31.5361 64.5753 32.2207 64.714 33.1047 64.714V65H26.5267V64.714C27.7227 64.714 28.6501 64.2633 29.3087 63.362C29.6727 62.8593 30.1407 61.8193 30.7127 60.242L35.1067 48.022H35.6527L41.2427 63.258C41.5027 63.9687 41.7627 64.3933 42.0227 64.532C42.2827 64.6533 43.0627 64.714 44.3627 64.714V65H34.7947V64.714C36.0947 64.714 36.9874 64.6707 37.4727 64.584C37.9581 64.48 38.2007 64.2807 38.2007 63.986L38.1487 63.726L36.4847 59.15ZM59.7145 48.23V55.64H59.3505C58.9518 52.8147 58.3192 50.8733 57.4525 49.816C56.7418 48.932 55.6932 48.49 54.3065 48.49C53.9598 48.49 53.7692 48.5073 53.7345 48.542C53.6652 48.594 53.6305 48.8193 53.6305 49.218V63.258C53.6305 63.7607 53.6652 64.0813 53.7345 64.22C53.7692 64.2893 53.8905 64.3673 54.0985 64.454C54.3065 64.5233 54.7052 64.584 55.2945 64.636C55.8838 64.688 56.6812 64.714 57.6865 64.714V65H46.3765V64.714C47.3645 64.714 48.1532 64.688 48.7425 64.636C49.3318 64.584 49.7305 64.5233 49.9385 64.454C50.1465 64.3673 50.2765 64.272 50.3285 64.168C50.3978 64.0467 50.4325 63.7433 50.4325 63.258V49.244C50.4325 48.7933 50.3805 48.5507 50.2765 48.516C50.2245 48.4987 50.0425 48.49 49.7305 48.49C48.3785 48.49 47.3472 48.9233 46.6365 49.79C45.7698 50.8647 45.1198 52.7973 44.6865 55.588H44.3225V48.23H59.7145ZM73.5816 58.032C73.5816 60.5453 73.0963 62.374 72.1256 63.518C71.1723 64.662 69.7856 65.234 67.9656 65.234C65.903 65.234 64.161 64.61 62.7396 63.362C61.041 61.8713 60.1916 59.7307 60.1916 56.94C60.1916 54.2187 61.0496 51.9913 62.7656 50.258C64.239 48.7673 65.8163 48.022 67.4976 48.022C68.3123 48.022 69.023 48.1693 69.6296 48.464C70.4096 48.8453 71.1203 49.4693 71.7616 50.336L73.0876 47.892H73.1916V55.432L72.9576 55.302C72.9576 53.066 72.3423 51.272 71.1116 49.92C70.089 48.7933 69.0143 48.23 67.8876 48.23C66.3796 48.23 65.2963 48.932 64.6376 50.336C63.979 51.7227 63.6496 53.82 63.6496 56.628C63.6496 59.384 64.005 61.4727 64.7156 62.894C65.4263 64.298 66.5096 65 67.9656 65C69.6123 65 70.8776 64.5147 71.7616 63.544C72.819 62.4 73.3476 60.5627 73.3476 58.032H73.5816ZM88.2944 63.258V56.55H80.8844V63.258C80.8844 63.7607 80.9191 64.0813 80.9884 64.22C81.0231 64.2893 81.1357 64.3673 81.3264 64.454C81.5344 64.5233 81.9071 64.584 82.4444 64.636C82.9817 64.688 83.6144 64.714 84.3424 64.714V65H74.1504V64.714C74.8957 64.714 75.5371 64.688 76.0744 64.636C76.6291 64.584 77.0017 64.5233 77.1924 64.454C77.4004 64.3673 77.5304 64.272 77.5824 64.168C77.6517 64.0467 77.6864 63.7433 77.6864 63.258V49.946C77.6864 49.4433 77.6517 49.1313 77.5824 49.01C77.5477 48.9407 77.4264 48.8713 77.2184 48.802C77.0277 48.7327 76.6377 48.6633 76.0484 48.594C75.4764 48.5247 74.8437 48.49 74.1504 48.49V48.23H84.3684V48.49C82.8951 48.49 81.8811 48.594 81.3264 48.802C81.1531 48.8713 81.0491 48.9407 81.0144 49.01C80.9277 49.166 80.8844 49.478 80.8844 49.946V56.108H88.2944V49.946C88.2944 49.4607 88.2511 49.1487 88.1644 49.01C88.1297 48.9407 88.0171 48.8713 87.8264 48.802C87.6357 48.7327 87.2457 48.6633 86.6564 48.594C86.0671 48.5247 85.4431 48.49 84.7844 48.49V48.23H95.0024V48.49C94.2224 48.49 93.5811 48.516 93.0784 48.568C92.5757 48.62 92.1857 48.698 91.9084 48.802L91.6744 48.906C91.5531 49.0273 91.4924 49.374 91.4924 49.946V63.258C91.4924 63.7607 91.5271 64.0813 91.5964 64.22C91.6311 64.2893 91.7351 64.3587 91.9084 64.428C92.4111 64.6187 93.4424 64.714 95.0024 64.714V65H84.8104V64.714C86.3357 64.714 87.3497 64.6187 87.8524 64.428C88.0431 64.3587 88.1557 64.2893 88.1904 64.22C88.2597 64.0987 88.2944 63.778 88.2944 63.258ZM109.445 65H94.9108L104.141 50.83C104.973 49.5473 105.389 48.8453 105.389 48.724C105.389 48.568 105.103 48.49 104.531 48.49C102.087 48.49 100.509 48.7067 99.7988 49.14C98.5334 49.92 97.7361 51.7833 97.4068 54.73H97.0428V48.23H109.549L100.319 62.4C99.4868 63.6653 99.0708 64.35 99.0708 64.454C99.0708 64.5927 99.3394 64.662 99.8768 64.662C102.251 64.662 103.803 64.5927 104.531 64.454C105.9 64.194 106.914 63.57 107.573 62.582C108.318 61.4727 108.821 59.6613 109.081 57.148H109.445V65ZM119.392 58.838L117 52.234L114.608 58.838H119.392ZM119.522 59.15H114.478L113.672 61.438C113.464 62.01 113.36 62.504 113.36 62.92C113.36 63.5613 113.603 64.0207 114.088 64.298C114.574 64.5753 115.258 64.714 116.142 64.714V65H109.564V64.714C110.76 64.714 111.688 64.2633 112.346 63.362C112.71 62.8593 113.178 61.8193 113.75 60.242L118.144 48.022H118.69L124.28 63.258C124.54 63.9687 124.8 64.3933 125.06 64.532C125.32 64.6533 126.1 64.714 127.4 64.714V65H117.832V64.714C119.132 64.714 120.025 64.6707 120.51 64.584C120.996 64.48 121.238 64.2807 121.238 63.986L121.186 63.726L119.522 59.15Z" fill="#45454A"/>
</g>
<defs>
<filter id="filter0_di_254_10747" x="0.259995" y="0" width="128.14" height="69.234" filterUnits="userSpaceOnUse" color-interpolation-filters="sRGB">
<feFlood flood-opacity="0" result="BackgroundImageFix"/>
<feColorMatrix in="SourceAlpha" type="matrix" values="0 0 0 0 0 0 0 0 0 0 0 0 0 0 0 0 0 0 127 0" result="hardAlpha"/>
<feOffset dy="1"/>
<feGaussianBlur stdDeviation="0.5"/>
<feColorMatrix type="matrix" values="0 0 0 0 0 0 0 0 0 0 0 0 0 0 0 0 0 0 0.25 0"/>
<feBlend mode="normal" in2="BackgroundImageFix" result="effect1_dropShadow_254_10747"/>
<feBlend mode="normal" in="SourceGraphic" in2="effect1_dropShadow_254_10747" result="shape"/>
<feColorMatrix in="SourceAlpha" type="matrix" values="0 0 0 0 0 0 0 0 0 0 0 0 0 0 0 0 0 0 127 0" result="hardAlpha"/>
<feOffset dy="4"/>
<feGaussianBlur stdDeviation="2"/>
<feComposite in2="hardAlpha" operator="arithmetic" k2="-1" k3="1"/>
<feColorMatrix type="matrix" values="0 0 0 0 0 0 0 0 0 0 0 0 0 0 0 0 0 0 0.25 0"/>
<feBlend mode="normal" in2="shape" result="effect2_innerShadow_254_10747"/>
</filter>
</defs>
</svg>
